<?xml version="1.0"?><svg width="640" height="480" xmlns="http://www.w3.org/2000/svg">
 <g>
  <title>Layer 1</title>
  <g transform="rotate(45 276.53698730468744,289.21051025390625) " id="g2555">
   <path fill="#ffffff" fill-rule="evenodd" id="path9" d="m202.063995,326.813995c9.121002,0 16.524002,7.402008 16.524002,16.52301c0,9.121002 -7.403,16.52298 -16.524002,16.52298c-9.121994,0 -16.524002,-7.401978 -16.524002,-16.52298c0,-9.121002 7.402008,-16.52301 16.524002,-16.52301"/>
   <path fill-rule="evenodd" stroke="#000000" stroke-width="0.036" stroke-miterlimit="10" id="path11" d="m0.02,553.559021c0.432,-1.152039 1.08,-2.05304 1.8,-2.70105c0.756,-0.68396 1.656,-1.33197 2.7,-1.546997c0.936,-0.323975 1.692,-0.395996 2.664,-0.21698l34.92,-36.935974l-2.916,-2.916016c-1.692001,0.214996 -3.060001,0.071991 -4.248001,-0.432007c-1.295998,-0.540985 -2.195999,-0.972992 -2.699997,-2.700989c-0.648003,-1.835999 -1.692001,-4.932007 -0.216003,-8.027008c1.512001,-3.23999 4.896,-8.171997 9.18,-10.764008c4.104,-2.770996 12.096001,-5.328003 15.66,-4.895996c3.564003,0.468994 5.220001,3.02301 5.364002,7.812988l16.775997,-14.759979l-2.015999,-3.563995c-3.239998,0.790985 -5.652,0.468994 -7.379997,-0.973022c-1.835999,-1.546997 -3.492004,-4.571991 -2.880005,-7.810974c0.648003,-3.38501 3.204002,-8.389008 6.696007,-11.664001c3.348,-3.38501 10.043999,-6.912018 13.859993,-7.813019c3.708,-0.899994 6.948006,0.828003 8.748001,2.664001c1.835999,1.764008 2.412003,4.5 2.015999,8.063995l8.928001,-9.395996c-3.239998,-0.899994 -5.652,-1.945007 -7.379997,-3.132996c-1.800003,-1.187988 -3.276001,-2.664001 -2.916,-4.031006c0.395996,-1.403992 1.907997,-3.096008 4.931999,-4.679993c-1.944,-1.621002 -3.059998,-3.312988 -3.348,-4.93399c-0.360001,-1.72702 -0.540001,-2.699005 1.547997,-5.145996c2.124001,-2.557007 7.956001,-8.31601 10.980003,-10.080017c2.879997,-1.835999 5.040001,-2.125 6.480003,-0.86499c-1.152,-2.59201 -1.512001,-4.932007 -0.684006,-6.730011c0.792,-1.835999 3.024002,-3.419983 5.148003,-4.464996c1.980003,-1.187988 3.924004,-2.80899 6.948006,-2.231995c2.951996,0.468994 6.659988,2.304993 10.979996,5.36499l3.347992,-3.81601l-6.947998,-5.796997c-1.979996,-0.755981 -3.131989,-1.655975 -3.599991,-2.698975c-0.612,-1.225006 -0.432007,-2.771027 0.68399,-3.81601c1.044006,-1.007996 2.988007,-1.619019 5.832001,-1.980011l2.880005,-2.268005c-1.188004,-1.042999 -1.656006,-1.871002 -1.548004,-2.878998c0.072006,-1.044983 1.044006,-2.196991 2.23201,-2.915985c1.151993,-0.828003 2.591995,-1.225006 4.463989,-1.584015l11.880005,-11.411987c-0.684006,-1.514008 -0.936005,-2.80899 -0.899994,-4.03299c-0.072006,-1.223022 0.251999,-2.59201 1.115997,-3.131012c0.791992,-0.686005 2.231995,-0.899994 4.031998,-0.64801l6.695999,-6.47998c0.395996,-1.69101 1.115997,-2.844025 2.016006,-3.600006c0.899994,-0.792999 1.979996,-1.045013 3.383987,-0.899994l19.656006,-17.893005c-0.180008,-1.942993 0.251999,-3.382996 1.151993,-4.463013c0.900009,-1.079987 2.268005,-1.800995 4.248001,-2.015991l84.095001,-87.337006c13.213013,-13.391998 24.804993,-24.875992 35.354004,-35.279999c10.475006,-10.332001 19.438995,-19.080002 27.324005,-26.388c-0.503998,-2.412003 -0.289001,-3.959991 0.645996,-4.931992c0.86499,-0.900009 2.484009,-1.223999 4.71701,-0.684006l5.362976,-4.895996c-0.718994,-2.484009 -0.503998,-4.104004 0.64801,-5.14801c1.080017,-0.972 3.096008,-1.367996 6.049011,-0.899994c1.90799,-3.132004 3.419983,-4.751999 4.931976,-5.147995c1.332001,-0.468002 3.16803,1.800003 3.564026,2.916c0.394989,1.043991 -0.14502,2.231995 -1.332001,3.563995l7.164001,5.147995l17.243988,-17.243988c0.070007,-1.656006 0.286987,-3.024002 0.645996,-4.248001c0.289001,-1.332001 0.144989,-2.376007 1.369019,-3.132004c1.187988,-0.755997 2.950989,-1.080002 5.579987,-1.115997l19.69101,-21.240005c-0.64801,-1.547997 -0.503998,-2.879997 0.431976,-4.139999c0.936005,-1.367996 3.275024,-2.807999 4.932007,-3.348c1.549011,-0.575996 2.916016,-0.575996 4.248016,0l53.028992,-53.928001c-1.079987,-0.359997 -1.873016,-0.827999 -2.231995,-1.799999c-0.541016,-0.899998 -2.231995,-1.188 -0.21701,-3.779999c2.018005,-2.736 7.957001,-8.352001 12.277008,-12.563999c4.247986,-4.392002 8.85498,-10.332001 12.996002,-12.960001c3.995972,-2.556 7.596008,-3.42 10.942993,-2.448l14.330017,-15.049c-0.395996,-0.972 -0.14502,-1.872 0.46698,-2.7c0.612976,-0.9 1.729004,-2.088 3.349976,-2.448c1.619019,-0.468 3.887024,-0.792 6.264038,0c2.339966,0.648 5.867004,1.368 7.378967,4.248c1.332031,2.808 1.514038,7.056 0.686035,12.744l-93.529022,98.675997l-9.179993,9.828003c0.468994,2.159996 -0.106995,3.816002 -1.332001,5.364006c-1.26001,1.475998 -3.563995,2.556 -6.515991,3.383987l-18.792999,20.340012c0.43399,1.584 0.144989,3.024002 -0.863007,4.463989c-1.11499,1.476013 -4.213013,3.276001 -5.399994,4.032013c-1.26001,0.612 -1.799011,0.539993 -1.764008,-0.216003l-110.306,116.675995c-0.286987,2.160004 -0.790985,4.032013 -1.799011,5.615997c-0.972992,1.548004 -1.944977,2.664001 -4.03299,3.779999c-2.230011,1.007019 -5.290985,1.834991 -9.179993,2.484009c0.828003,2.339996 2.376984,3.274994 4.5,3.347992c2.053009,-0.144989 5.507996,-3.23999 8.281006,-3.600006c2.770996,-0.431976 6.298981,-0.071991 8.496002,1.367004c2.22998,1.44101 5.110992,4.752014 4.462982,7.164001c-0.828003,2.377014 -5.652008,5.580017 -9.179993,6.696991c-3.744019,0.863007 -8.820007,0.46701 -12.312988,-0.899994c-3.420013,-1.332001 -6.229004,-3.923981 -8.279022,-7.380981c0.576019,4.931976 0,8.785004 -1.332001,11.411987c-1.438995,2.557007 -5.075989,3.671997 -7.164001,4.464996c-2.195984,0.718994 -3.959991,0.899994 -5.579987,0.252014l-105.156006,111.23999c1.080002,3.23999 0.936005,5.579987 -0.431992,7.164001c-1.440002,1.546997 -3.960007,2.339996 -7.848007,2.230011c1.044006,4.285004 1.188004,8.063995 0.432007,11.628998c-0.864014,3.526978 -3.167999,6.660004 -5.112,9.395996c-1.980011,2.664001 -3.780014,5.399994 -6.516006,6.264008c-2.843994,0.68399 -6.227997,0.179993 -10.296005,-1.801025l-105.802996,111.673004c0.216002,1.007996 -0.18,1.97998 -0.9,3.061035c-0.756001,1.007996 -2.124001,2.052979 -3.816,3.132996c-6.228001,-3.637024 -11.268,-7.381042 -15.66,-11.629028c-4.357,-4.247986 -7.74,-8.710999 -10.296,-13.534973z"/>
   <path fill="#ffffff" fill-rule="evenodd" stroke="#000000" stroke-width="0.036" stroke-miterlimit="10" id="path13" d="m9.308,548.661987l33.696002,-34.30896c-0.288002,1.368958 -0.036003,2.556946 0.612,3.708984c0.647999,1.080017 1.835999,2.015991 3.419998,2.807007l-32.148,33.049011c-1.007999,-0.57605 -1.799999,-1.297058 -2.771999,-2.160034c-0.972,-0.935974 -1.908,-1.870972 -2.808001,-3.096008z"/>
   <path fill="#ffffff" fill-rule="evenodd" stroke="#000000" stroke-width="0.036" stroke-miterlimit="10" id="path15" d="m21.08,559.497986c9.864,-10.511963 19.404001,-20.484009 29.052,-30.312988c9.612,-9.862976 18.792004,-19.187988 28.116001,-28.403992l3.384003,2.449005l-56.232004,60.264008c-1.440001,-1.332031 -2.879999,-2.664001 -4.32,-3.996033z"/>
   <path fill="#ffffff" fill-rule="evenodd" stroke="#000000" stroke-width="0.036" stroke-miterlimit="10" id="path17" d="m26.624001,565.04303l58.715996,-61.813019c-2.267998,-3.277008 -3.455994,-5.436005 -3.707993,-6.480011c-0.324005,-1.11499 1.043999,-0.610992 2.159996,0c1.115997,0.468994 2.519997,1.549011 4.356003,3.096008l42.012001,-43.882996c0.899994,1.11499 1.727997,1.942993 2.772003,2.770996c1.007996,0.755981 1.944,1.367004 3.095993,1.835999l-105.695999,109.729004c-1.224001,-1.729004 -2.448,-3.492004 -3.708,-5.255981z"/>
   <path fill="#ffffff" fill-rule="evenodd" stroke="#000000" stroke-width="0.036" stroke-miterlimit="10" id="path19" d="m33.104,497.686005c1.476002,-2.268005 3.132,-3.996002 4.967999,-5.580017c1.728001,-1.511993 3.456001,-2.554993 5.868,-3.707001c2.484001,-1.187988 5.184002,-2.556976 8.640003,-3.708984c-3.960003,2.77301 -7.200001,5.14801 -9.864002,7.415985c-2.664001,2.160004 -4.68,4.861023 -6.192001,5.869019c-1.584,0.863007 -2.772999,0.863007 -3.419998,-0.289001z"/>
   <path fill="#ffffff" fill-rule="evenodd" stroke="#000000" stroke-width="0.036" stroke-miterlimit="10" id="path21" d="m37.459999,500.13501c-2.16,0.539001 -3.348,1.294983 -3.708,2.806976c-0.431999,1.404022 -0.431999,5.617004 1.548,5.545013c2.016003,-0.289001 6.336002,-3.743988 10.188,-6.480011c3.780003,-2.843994 9.468002,-7.630981 12.060001,-9.899994c2.375999,-2.339996 3.239998,-3.527008 2.447998,-3.707001c-0.323997,-1.47699 -0.792,-2.411987 -1.547997,-3.096008c-0.828003,-0.685974 -1.800003,-0.937988 -3.060001,-0.899994c-1.799999,2.339996 -4.175999,4.714996 -7.128002,7.416016c-3.095997,2.589996 -6.515999,5.362 -10.799999,8.315002z"/>
   <path fill="#ffffff" fill-rule="evenodd" stroke="#000000" stroke-width="0.036" stroke-miterlimit="10" id="path23" d="m57.835999,497.686005l-10.188,11.125l0.612,5.542999c-0.503998,0.721008 -0.503998,0.721008 0,0c0.360001,-0.755981 1.188004,-1.979004 2.772003,-4.643005c1.655998,-2.846008 3.743999,-6.804993 6.803997,-12.024994z"/>
   <path fill="#ffffff" fill-rule="evenodd" stroke="#000000" stroke-width="0.036" stroke-miterlimit="10" id="path25" d="m45.164001,513.742004c-0.432003,0.791016 -0.576,1.512024 -0.288002,2.159973c0.216,0.539001 0.827999,1.188049 1.836002,1.546997c0.612,-1.079956 0.863998,-1.905945 0.612,-2.481995c-0.252003,-0.575989 -0.972,-1.117004 -2.16,-1.224976z"/>
   <path fill="#ffffff" fill-rule="evenodd" stroke="#000000" stroke-width="0.036" stroke-miterlimit="10" id="path27" d="m57.223999,501.070007l-4.031998,8.026978l5.256001,-3.995972l-1.224003,-4.031006z"/>
   <path fill="#ffffff" fill-rule="evenodd" stroke="#000000" stroke-width="0.036" stroke-miterlimit="10" id="path29" d="m64.316002,491.170013l15.155998,-13.572021c0.575996,1.117004 1.295998,1.369019 2.160004,0.613007c0.792,-0.757996 1.727997,-2.411987 2.807999,-4.968994l0,4.35498l-20.124001,19.764008c0,-2.049988 0,-4.102997 0,-6.190979z"/>
   <path fill="#ffffff" fill-rule="evenodd" stroke="#000000" stroke-width="0.036" stroke-miterlimit="10" id="path31" d="m73.928001,494.265991l-21.960003,22.895996c-3.239998,5.039001 -3.599998,6.622986 -1.223999,4.606995c2.375999,-2.050964 11.556,-12.743988 15.444004,-16.667969c3.815994,-4.068024 6.047997,-6.299011 7.091995,-7.127014c4.571999,-2.664001 4.32,-1.368988 -0.612,4.031006c-5.040001,5.363007 -14.723999,14.687988 -29.34,28.11499c0.035999,2.160034 3.167999,0.361023 9.252003,-5.255981c6.119999,-5.76001 15.047997,-15.19101 27.215996,-28.72702c0.576004,-3.854004 0.324005,-5.868988 -0.612,-6.192993c-0.972,-0.251007 -2.771996,1.009003 -5.255997,4.321991z"/>
   <path fill="#ffffff" fill-rule="evenodd" stroke="#000000" stroke-width="0.036" stroke-miterlimit="10" id="path33" d="m70.220001,465.536987c3.996002,-0.825989 7.704002,-2.843994 11.412003,-6.190979c3.635994,-3.420013 7.091995,-7.920013 10.511993,-13.895996c2.412003,1.403992 3.744003,3.204987 3.708,5.255981c0.036003,2.018005 -1.295998,4.429993 -3.708,7.093994c4.104004,0.035004 5.760002,1.080017 5.256004,3.420013c-0.576004,2.303009 -3.456001,5.649994 -8.639999,10.187988c0.18,-1.368988 0.540001,-2.664001 1.223999,-4.030975c0.575996,-1.514008 2.699997,-3.277008 2.771996,-4.320007c0.072006,-1.080017 -0.647995,-1.692993 -2.159996,-1.835999c-3.779999,3.203003 -6.587997,5.470978 -8.963997,7.09198c-2.376007,1.512024 -3.096001,2.555023 -4.932007,2.160004c-1.907997,-0.542999 -4.067993,-2.054993 -6.479996,-4.936005z"/>
   <path fill="#ffffff" fill-rule="evenodd" stroke="#000000" stroke-width="0.036" stroke-miterlimit="10" id="path35" d="m70.508003,460.570007c-0.288002,-2.701019 0.899994,-5.076019 3.419998,-7.416016c2.556,-2.339996 6.335999,-4.5 11.736,-6.47998c-0.720001,1.583984 -1.908005,3.132996 -3.708,4.644989c-1.908005,1.367004 -5.256004,2.80899 -7.127998,4.320007c-1.944,1.583984 -3.384003,3.095001 -4.32,4.931z"/>
   <path fill="#ffffff" fill-rule="evenodd" stroke="#000000" stroke-width="0.036" stroke-miterlimit="10" id="path37" d="m100.171997,455.024994l9.900002,-10.511993c-4.463997,-1.584015 -7.451996,-3.02301 -8.963997,-4.320007c-1.620003,-1.367004 -2.088005,-3.85199 -0.288002,-3.707001c1.800003,0.072021 5.508003,1.511993 11.124001,4.320007c-5.292,-3.204987 -7.776001,-5.113007 -7.739998,-5.868988c0.107994,-0.756012 5.652,0.68399 8.028,1.548981c2.159996,0.791016 3.959999,1.729004 5.255997,3.096008l-16.667999,19.764008c-0.216003,-1.440002 -0.431999,-2.878998 -0.648003,-4.321014z"/>
   <path fill="#ffffff" fill-rule="evenodd" stroke="#000000" stroke-width="0.036" stroke-miterlimit="10" id="path39" d="m84.115997,483.609009l31.824005,-33.046997c0.647995,-4.141022 1.727997,-6.40802 3.096001,-6.805023c1.367996,-0.431976 3.167999,1.008026 5.255997,4.320007c2.304001,-1.187988 0.288002,1.511993 -6.192001,8.640991c-6.552002,7.055023 -17.171997,18 -32.435997,33.371002c-2.195999,0.792999 -0.756004,-1.438995 4.32,-7.09198c5.112,-5.688019 13.571999,-14.400024 25.956001,-26.568024c0.575996,-2.159973 -0.972,-1.546997 -4.644005,1.836029c-3.779999,3.419983 -13.068001,13.860992 -17.603996,18.251984c-4.609001,4.175995 -7.704002,6.588013 -9.576004,7.09201z"/>
   <path fill="#ffffff" fill-rule="evenodd" stroke="#000000" stroke-width="0.036" stroke-miterlimit="10" id="path41" d="m121.807999,415.317993c-3.024002,-1.872986 -5.903999,-2.339996 -8.639999,-1.548981c-2.844002,0.720978 -5.975998,4.03299 -8.028,6.47998c-2.232002,2.447021 -4.643997,6.19101 -4.32,8.027008c0.360001,1.729004 2.519997,2.557007 6.480003,2.484009c4.823997,-5.147003 9.647995,-10.292999 14.507996,-15.442017z"/>
   <path fill="#ffffff" fill-rule="evenodd" stroke="#000000" stroke-width="0.036" stroke-miterlimit="10" id="path43" d="m124.292,415.929993l-14.220001,14.832001c1.368004,2.339996 3.167999,2.916016 5.256004,1.873016c2.087997,-1.188995 4.931999,-6.014008 7.416,-8.354004c2.447998,-2.303009 4.715996,-4.210999 7.091995,-5.580017c-1.835999,-0.89798 -3.671997,-1.835999 -5.543999,-2.770996z"/>
   <path fill="#ffffff" fill-rule="evenodd" stroke="#000000" stroke-width="0.036" stroke-miterlimit="10" id="path45" d="m117.811996,434.471008c8.568001,-8.171997 13.932007,-13.71701 16.380005,-17.31601c2.339996,-3.457001 -0.180008,-3.02301 -2.160004,-3.708984c-2.123993,-0.756012 -8.171997,0.468994 -10.223999,-0.89801c-2.159996,-1.584015 -3.204002,-6.265991 -2.159996,-8.063995c1.079994,-1.90802 5.939995,-2.881012 8.351997,-3.061005c2.231995,-0.252014 3.059998,0.21701 5.255997,1.548981c2.124008,1.26001 4.751999,3.311005 7.740005,6.156006l3.384003,-3.097992c1.29599,0.071991 2.123993,0.541016 2.483994,1.549011c0.395996,0.936005 1.584,1.548981 -0.324005,4.319977c-2.195999,2.699005 -7.73999,7.127014 -12.059998,11.771027c-4.319992,4.534973 -8.747993,9.395996 -13.571999,15.120972c-1.007996,-1.440979 -2.051994,-2.880981 -3.096001,-4.319977z"/>
   <path fill="#ffffff" fill-rule="evenodd" stroke="#000000" stroke-width="0.036" stroke-miterlimit="10" id="path47" d="m145.315994,431.375c-3.599991,1.475006 -6.227997,3.85199 -8.028,7.127014c-1.835999,3.23999 -2.771988,7.30899 -2.807999,12.347992c0.64801,1.548981 1.404007,1.548981 1.872009,0c0.395996,-1.656006 -0.216003,-6.550995 1.223999,-9.252014c1.475998,-2.878998 6.371994,-5.003998 7.73999,-6.802979c1.26001,-1.693024 1.26001,-2.881012 0,-3.420013z"/>
   <path fill="#ffffff" fill-rule="evenodd" stroke="#000000" stroke-width="0.036" stroke-miterlimit="10" id="path49" d="m149.959,427.054993c1.115997,-1.47699 5.904007,-5.003998 7.416,-5.868988c1.404007,-0.863007 2.268005,-0.179993 1.223999,1.225006c-1.296005,1.367004 -6.516006,5.903992 -8.028,6.804993c-1.511002,0.755005 -1.763,-0.938995 -0.612,-2.161011z"/>
   <path fill="#ffffff" fill-rule="evenodd" stroke="#000000" stroke-width="0.036" stroke-miterlimit="10" id="path51" d="m151.796005,434.182007c2.87999,1.225006 4.391998,3.02298 4.931992,5.544983c0.324005,2.52002 -0.863998,6.119019 -2.160004,9.287018c-1.29599,2.953003 -3.419998,7.09198 -5.255997,8.964996c-1.979996,1.764008 -3.707993,2.484009 -5.867996,2.160004c-2.231995,-0.395996 -4.464005,-1.835999 -7.091995,-4.320007c1.115997,-0.64801 1.979996,-1.332001 2.447998,-2.196991c0.468002,-0.936005 -0.072006,-1.584015 0.32399,-3.059021c0.28801,-1.583984 0.432007,-4.571991 1.548004,-6.192993c1.080002,-1.69101 2.951996,-2.050995 4.932007,-3.707001c1.871994,-1.802002 3.888,-3.816986 6.192001,-6.480988z"/>
   <path fill="#ffffff" fill-rule="evenodd" stroke="#000000" stroke-width="0.036" stroke-miterlimit="10" id="path53" d="m153.343994,432.311005c2.664001,0.718994 4.932007,1.079987 6.804001,0.936005c1.800003,-0.252014 3.708008,-0.684021 4.320007,-1.871002c0.576004,-1.188995 0.216003,-2.988007 -0.936005,-5.257996l61.524002,-66.131012l-2.483994,-1.835999l-11.736008,12.958984l-3.419998,-2.159973c0,3.563995 -1.188004,6.192993 -3.708008,8.028992c-2.591995,1.764008 -6.263992,2.699005 -11.411987,2.807007l3.095993,5.544983l-12.671997,13.932007l-2.807999,-2.484009c0.179993,3.81601 -0.432007,6.697021 -1.835999,8.641022c-1.475998,1.870972 -4.716003,1.870972 -6.804001,2.770996c-2.195999,0.828003 -4.212006,1.511993 -6.192001,2.196991c2.520004,1.007996 3.959991,2.195007 4.031998,3.707001c0.035995,1.47699 -0.828003,2.125 -3.419998,5.256012c-2.664001,2.987 -6.733002,7.306976 -12.348007,12.959991z"/>
   <path fill="#ffffff" fill-rule="evenodd" stroke="#000000" stroke-width="0.036" stroke-miterlimit="10" id="path55" d="m85.952003,491.639008l41.435997,-42.011993l1.548004,4.317993l-40.788002,42.335999c-1.116005,-0.106995 -1.800003,-0.46701 -2.195999,-1.222992c-0.396004,-0.828003 -0.396004,-1.872009 0,-3.419006z"/>
   <path fill="#ffffff" fill-rule="evenodd" stroke="#000000" stroke-width="0.036" stroke-miterlimit="10" id="path57" d="m123.968002,440.518005l8.964005,-9.576019l3.095993,4.609009c-1.619995,1.149994 -2.807999,3.05899 -3.707993,5.580017c-0.900009,2.481995 -1.368011,5.722992 -1.548004,9.573975c-2.268005,-3.382996 -4.536003,-6.766998 -6.804001,-10.186981z"/>
   <path fill="#ffffff" fill-rule="evenodd" stroke="#000000" stroke-width="0.036" stroke-miterlimit="10" id="path59" d="m137.899994,426.910004c2.304001,-3.274994 4.536011,-6.264008 7.09201,-8.964996c2.519989,-2.807007 4.968002,-5.184021 7.73999,-7.416016l3.384003,5.869019c-2.412003,0.936005 -4.319992,2.231995 -5.867996,4.030975c-1.584,1.801025 -2.664001,3.81601 -3.384003,6.480011c-2.268005,1.187988 -3.996002,2.088013 -5.580002,3.096008c-1.584,0.899994 -2.772003,1.729004 -3.707993,2.484009c0.108002,-1.835022 0.216003,-3.708008 0.32399,-5.57901z"/>
   <path fill="#ffffff" fill-rule="evenodd" stroke="#000000" stroke-width="0.036" stroke-miterlimit="10" id="path61" d="m158.276001,407.145996c-1.511993,-1.044983 -2.699997,-2.700989 -3.708008,-4.968994c-1.007996,-2.484009 -2.556,-6.118988 -2.159988,-8.963013c0.287994,-2.915985 1.90799,-6.517975 4.031998,-8.028992c2.015991,-1.511993 4.968002,-1.546997 8.028,-1.222992c2.951996,0.143005 7.451996,1.007996 9.899994,2.446991c2.339996,1.403992 3.779999,3.312988 4.320007,5.867004l-2.484009,-0.286987c1.044006,0.68399 1.044006,0.68399 0,0c-1.115997,-0.828003 -4.067993,-3.564026 -6.479996,-4.320007c-2.591995,-0.791016 -6.300003,-1.042999 -8.352005,-0.324005c-2.123993,0.613007 -3.276001,2.700989 -3.995987,4.320007c-0.792007,1.511993 -1.044006,3.167999 -0.324005,5.255981c0.720001,2.016022 2.268005,4.393005 4.643997,7.128998c-1.115997,1.009003 -2.268005,2.052002 -3.419998,3.096008z"/>
   <path fill="#ffffff" fill-rule="evenodd" stroke="#000000" stroke-width="0.036" stroke-miterlimit="10" id="path63" d="m175.591995,394.761993c0.28801,3.274994 -0.179993,5.652008 -1.547989,7.128998c-1.368011,1.404022 -3.528,1.90802 -6.479004,1.512024c-1.764008,1.11499 -2.484009,1.942993 -2.160004,2.483978c0.324005,0.503998 1.979996,1.080017 3.996002,0.610992c1.871994,-0.720978 6.335999,-2.052979 7.416,-3.995972c0.970993,-1.943024 0.610992,-4.572021 -1.225006,-7.740021z"/>
   <path fill="#ffffff" fill-rule="evenodd" stroke="#000000" stroke-width="0.036" stroke-miterlimit="10" id="path65" d="m164.468002,401.56601c-1.367996,-0.106995 -3.779999,-2.231995 -4.320007,-4.03302c-0.612,-1.905975 -0.215988,-6.083984 0.612,-7.09198c0.684006,-1.007996 2.988007,0 3.708008,0.937988c0.576004,0.825989 -0.28801,2.807007 0.324005,3.993988c0.575989,1.01001 3.419998,1.801025 3.383987,2.809021c-0.108002,1.044983 -2.447998,3.419983 -3.707993,3.384003z"/>
   <path fill="#ffffff" fill-rule="evenodd" stroke="#000000" stroke-width="0.036" stroke-miterlimit="10" id="path67" d="m186.212006,377.15799c-1.476013,-1.007996 -2.628006,-2.556976 -3.600006,-4.789001c-0.972,-2.375 -2.447998,-5.901978 -2.087997,-8.638977c0.360001,-2.809021 1.800003,-6.264008 3.888,-7.740021c1.908005,-1.438995 4.82399,-1.511993 7.776001,-1.187988c2.916,0.179993 7.056,0.971008 9.503998,2.375c2.231995,1.332001 3.671997,3.167999 4.175995,5.652008l-2.375992,-0.287018c1.007996,0.684021 1.007996,0.684021 0,0c-1.152008,-0.828003 -3.888,-3.384979 -6.264008,-4.177979c-2.520004,-0.828003 -5.975998,-0.971008 -8.028,-0.287018c-2.087997,0.610992 -3.203995,2.557007 -3.888,4.175995c-0.828003,1.404022 -0.972,3.132996 -0.287994,5.041016c0.720001,1.942993 2.160004,4.28299 4.464005,6.875c-1.080002,0.973999 -2.160004,1.980988 -3.276001,2.988983z"/>
   <path fill="#ffffff" fill-rule="evenodd" stroke="#000000" stroke-width="0.036" stroke-miterlimit="10" id="path69" d="m202.916,365.242004c0.287994,3.167999 -0.216003,5.399994 -1.511993,6.839996c-1.296005,1.332001 -3.384003,1.871002 -6.264008,1.47699c-1.727997,1.115021 -2.375992,1.871002 -2.087997,2.412018c0.287994,0.432007 1.908005,1.079987 3.888,0.575989c1.871994,-0.64801 6.011993,-1.980011 7.164001,-3.854004c0.972,-1.90799 0.575989,-4.389984 -1.188004,-7.450989z"/>
   <path fill="#ffffff" fill-rule="evenodd" stroke="#000000" stroke-width="0.036" stroke-miterlimit="10" id="path71" d="m192.151993,371.795013c-1.367996,-0.182007 -3.599991,-2.125 -4.175995,-3.889008c-0.576004,-1.90802 -0.143997,-5.76001 0.612,-6.839996c0.684006,-0.973022 2.844009,-0.037018 3.563995,0.862976c0.576004,0.792999 -0.287994,2.736023 0.324005,3.889008c0.576004,0.971008 3.240005,1.729004 3.276001,2.699005c-0.072006,1.080994 -2.376999,3.240997 -3.600006,3.278015z"/>
   <path fill="#ffffff" fill-rule="evenodd" stroke="#000000" stroke-width="0.036" stroke-miterlimit="10" id="path73" d="m214.328003,351.200989c-1.548004,-1.007996 -2.556,-2.554993 -3.563995,-4.786987c-0.972,-2.377014 -2.448013,-5.903992 -2.088013,-8.640991c0.28801,-2.807007 1.800003,-6.264008 3.852005,-7.740021c1.979996,-1.438995 4.716003,-1.511993 7.776001,-1.187988c2.880005,0.179993 7.164001,0.972992 9.539993,2.376984c2.23201,1.332001 3.672012,3.16803 4.17601,5.650024l-2.412003,-0.287018c1.007996,0.684021 1.007996,0.684021 0,0c-1.152008,-0.828003 -3.888,-3.384979 -6.264008,-4.175995c-2.519989,-0.828003 -5.975998,-0.972992 -8.028,-0.289001c-2.087997,0.613007 -3.203995,2.557007 -3.888,4.178009c-0.827988,1.402008 -0.972,3.130981 -0.287994,5.039001c0.720001,1.942993 2.160004,4.28299 4.464005,6.876984c-1.080002,0.972015 -2.160004,1.979004 -3.276001,2.987z"/>
   <path fill="#ffffff" fill-rule="evenodd" stroke="#000000" stroke-width="0.036" stroke-miterlimit="10" id="path75" d="m231.031998,339.25c0.28801,3.132996 -0.216003,5.472992 -1.511993,6.877014c-1.296005,1.332001 -3.384003,1.870972 -6.264008,1.474976c-1.692001,1.117004 -2.375992,1.873016 -2.052002,2.412018c0.28801,0.432007 1.944,1.079987 3.852005,0.575989c1.871994,-0.64801 6.011993,-1.980011 7.164001,-3.85199c0.972,-1.90802 0.576004,-4.355011 -1.188004,-7.488007z"/>
   <path fill="#ffffff" fill-rule="evenodd" stroke="#000000" stroke-width="0.036" stroke-miterlimit="10" id="path77" d="m220.304001,345.838013c-1.367996,-0.180023 -3.600006,-2.123016 -4.175995,-3.889008c-0.64801,-1.979004 -0.180008,-5.795013 0.575989,-6.875c0.64801,-1.007996 2.916,0.035004 3.600006,0.899994c0.612,0.791016 -0.360001,2.735992 0.287994,3.886993c0.576004,0.973022 3.240005,1.729004 3.276001,2.701019c-0.143997,1.080994 -2.304993,3.240997 -3.563995,3.276001z"/>
   <path fill="#ffffff" fill-rule="evenodd" stroke="#000000" stroke-width="0.036" stroke-miterlimit="10" id="path79" d="m237.475998,325.856995c-1.403992,-0.971008 -2.483994,-2.375 -3.384003,-4.5c-0.935989,-2.195007 -2.231995,-5.542999 -1.944,-8.100006c0.28801,-2.626984 1.692001,-5.903992 3.636002,-7.30899c1.872009,-1.402008 4.391998,-1.402008 7.272003,-1.11499c2.736008,0.179993 6.695999,0.936005 8.964005,2.268005c2.159988,1.259979 3.419998,3.024994 3.923996,5.292999l-2.231995,-0.252014c0.935989,0.610992 0.935989,0.610992 0,0c-1.044006,-0.792999 -3.600006,-3.167999 -5.868011,-3.924011c-2.26799,-0.755981 -5.759995,-0.899994 -7.559998,-0.289001c-1.944,0.541016 -3.024002,2.449005 -3.671997,3.924011c-0.791992,1.403992 -0.828003,2.80899 -0.251999,4.752014c0.612,1.90799 2.052002,3.960999 4.175995,6.444977c-1.007996,0.936005 -2.015991,1.872009 -3.059998,2.807007z"/>
   <path fill="#ffffff" fill-rule="evenodd" stroke="#000000" stroke-width="0.036" stroke-miterlimit="10" id="path81" d="m253.136002,314.661987c0.216003,2.951019 -0.108002,5.14801 -1.367996,6.443024c-1.296005,1.259979 -3.132004,1.763977 -5.904007,1.368988c-1.584,1.007996 -2.231995,1.764008 -1.944,2.268005c0.180008,0.359009 1.908005,1.042999 3.636002,0.539001c1.727997,-0.576019 5.723999,-1.835999 6.731995,-3.63501c0.936005,-1.763 0.504013,-4.139984 -1.151993,-6.984009z"/>
   <path fill="#ffffff" fill-rule="evenodd" stroke="#000000" stroke-width="0.036" stroke-miterlimit="10" id="path83" d="m243.056,320.817993c-1.367996,-0.21698 -3.276001,-1.945007 -3.923996,-3.636993c-0.576004,-1.729004 -0.108002,-5.542999 0.575989,-6.442993c0.64801,-1.045013 2.59201,0.106995 3.348007,0.828003c0.468002,0.755981 -0.216003,2.519989 0.287994,3.634979c0.540009,1.045013 3.060013,1.514008 3.096008,2.520996c-0.108002,0.899017 -2.160004,3.132019 -3.384003,3.096008z"/>
   <path fill="#ffffff" fill-rule="evenodd" stroke="#000000" stroke-width="0.036" stroke-miterlimit="10" id="path85" d="m25.184,576.742004c0.648001,-0.395996 0.360001,-1.367004 -0.468,-3.060974c-0.972,-1.83606 -2.916,-4.752014 -5.004,-7.199036c-2.195999,-2.448975 -4.608,-4.861023 -7.632,-7.236023l3.492,-2.59198c3.312001,2.916016 5.796,5.507996 7.848001,7.630981c1.872,2.125 2.988001,3.602051 3.924,5.258057c0.9,1.653992 2.087999,3.310974 1.764,4.569946c-0.396,1.117004 -1.656,2.125 -3.924,2.629028z"/>
   <path fill="#ffffff" fill-rule="evenodd" stroke="#000000" stroke-width="0.036" stroke-miterlimit="10" id="path87" d="m13.375,555.754028c-1.692,-1.188049 -3.348,-2.160034 -4.572,-3.061035c-1.26,-1.007996 -2.16,-2.375 -3.276,-2.159973c-1.296,0.21698 -2.484,1.33197 -3.96,3.492004c2.412,0.899963 4.212,1.656006 5.688,2.411987c1.404,0.68396 2.304,1.33197 2.844,1.945007c1.081,-0.864014 2.161,-1.728027 3.276,-2.627991z"/>
   <path fill="#ffffff" fill-rule="evenodd" stroke="#000000" stroke-width="0.036" stroke-miterlimit="10" id="path89" d="m136.748001,393.178009c-2.628006,-1.332001 -3.744003,-2.375 -3.492004,-3.274994c0.251999,-0.973022 1.872009,-1.656006 5.003998,-2.197021l6.12001,-5.003998c-1.475998,-1.149994 -1.908005,-2.122986 -1.296005,-3.05899c0.612,-1.007996 2.231995,-1.835999 5.003998,-2.628998l13.751999,-13.752014c-1.440002,-2.446991 -1.871994,-4.104004 -1.29599,-4.824005c0.539993,-0.828003 2.015991,-0.755981 4.571991,0.21701l7.667999,-7.847992c-0.791992,-1.511993 -0.863998,-2.484009 -0.216003,-3.061005c0.64801,-0.576996 1.908005,-0.64801 3.924011,-0.21701l20.519989,-18.755981c-1.223999,-1.367004 -1.511993,-2.447021 -0.863998,-3.382996c0.64801,-1.008026 3.419998,-1.693024 4.572006,-2.197021c1.007996,-0.503998 1.800003,-0.718994 1.979996,-0.645996l28.152008,-29.053009c3.095993,-1.621002 4.031998,-1.259979 2.412003,1.080017c-1.62001,2.339996 -5.508011,6.587982 -11.808014,12.889008c4.896011,2.446991 7.236008,4.247986 7.416,5.255981c-0.071991,0.971008 -5.759995,0.106995 -6.76799,0.863007c-0.972,0.64801 2.339996,3.563995 1.332001,3.492004c-1.080002,-0.14502 -3.636002,-1.47702 -7.667999,-4.140991l-11.772003,11.770996c1.800003,1.188995 2.987991,2.231995 3.707993,3.276978c0.64801,0.971008 0.468002,2.195007 0.432007,2.844025c-0.180008,0.539001 0.108002,0.972992 -1.080002,0.899994c-1.188004,-0.14502 -3.276001,-0.613007 -6.119995,-1.549011l-21.167999,19.225006l4.355988,4.355011c-0.899994,0.179993 -1.511993,0.68399 -1.979996,1.11499c-0.468002,0.43399 -0.755997,1.01001 -0.863998,1.729004l-5.220001,-3.492004l-8.315994,8.53299c1.835999,2.484009 3.167999,4.606995 4.139999,6.516022c0.899994,1.800995 1.151993,3.202972 1.332001,4.606995c0.071991,1.403992 -0.216003,2.843994 -0.863998,3.492004c-0.936005,0.358978 -2.628006,-0.900024 -3.528,-0.432007c-0.900009,0.503998 -0.684006,3.38501 -1.296005,3.492004c-0.720001,0.035004 -2.699997,-1.980011 -2.628006,-3.275024c0.036011,-1.403992 3.096008,-2.80899 3.060013,-4.608978c-0.108002,-1.835999 -1.224014,-3.886993 -3.492004,-6.299011l-15.264008,13.96701l5.003998,4.789001c-0.899994,0.46698 -1.511993,1.007996 -1.979996,1.764008c-0.468002,0.68399 -0.755997,1.546997 -0.863998,2.59198l-4.356003,-4.35498c-2.87999,2.375 -4.787994,4.247986 -6.119995,5.903992c-1.332001,1.653992 -0.863998,2.985992 -1.511993,3.707001c-0.720001,0.505005 -1.548004,0.397003 -2.628006,-0.322998z"/>
   <path fill="#ffffff" fill-rule="evenodd" stroke="#000000" stroke-width="0.036" stroke-miterlimit="10" id="path91" d="m191.755997,344.360992c2.447998,2.881012 4.391998,4.537018 6.12001,4.824005c1.655991,0.252014 2.916,-0.718994 3.923996,-3.05899l-6.084,-6.553009c-1.296005,1.584991 -2.628006,3.169006 -3.960007,4.787994z"/>
   <path fill="#ffffff" fill-rule="evenodd" stroke="#000000" stroke-width="0.036" stroke-miterlimit="10" id="path93" d="m177.787994,366.429993c0.072006,2.377014 0.612,4.752014 1.764008,6.984009c1.080002,2.231995 2.627991,4.464996 4.787994,6.553009l-5.903992,4.786987l-9.828003,-3.061005c-0.072006,-1.764008 0.251999,-2.843994 1.115997,-3.23999c0.863998,-0.503998 2.916,2.304993 3.923996,0.64801c0.792007,-1.799011 0.828003,-8.568024 1.512009,-10.729004c0.68399,-2.122009 1.511993,-2.77002 2.627991,-1.942017z"/>
   <path fill="#ffffff" fill-rule="evenodd" stroke="#000000" stroke-width="0.036" stroke-miterlimit="10" id="path95" d="m176.923996,356.817993l-4.571991,4.824005l1.29599,4.786987c0.503998,-1.835999 1.080002,-3.382996 1.728012,-4.786987c0.647995,-1.47699 1.259995,-2.520996 1.979996,-3.528992c-0.143997,-0.431 -0.28801,-0.863007 -0.432007,-1.295013z"/>
   <path fill="#ffffff" fill-rule="evenodd" stroke="#000000" stroke-width="0.036" stroke-miterlimit="10" id="path97" d="m161.192001,372.117004l-6.984009,6.769989l2.628006,3.492004c1.512009,-0.899994 2.988007,-1.368988 4.572006,-1.549011c1.584,-0.179993 2.987991,0.035004 4.608002,0.64801c-2.195999,-1.117004 -3.528,-2.376984 -4.392014,-3.924011c-0.827988,-1.619995 -0.972,-3.383972 -0.431992,-5.436981z"/>
   <path fill="#ffffff" fill-rule="evenodd" stroke="#000000" stroke-width="0.036" stroke-miterlimit="10" id="path99" d="m147.223999,387.597992c-3.059998,1.369019 -4.608002,2.770996 -4.787994,4.606995c-0.180008,1.766022 3.203995,3.996002 3.923996,5.869019c0.647995,1.798981 0.720001,3.203003 0.216003,4.606995l3.491989,5.436005l2.628006,-3.05899c-2.087997,-3.025024 -3.455994,-5.508026 -3.960007,-7.848022c-0.503998,-2.411987 0.64801,-4.429993 0.684006,-5.903992c-0.143997,-1.511993 -0.539993,-2.449005 -1.332001,-2.80899l-0.863998,-0.899017z"/>
   <path fill="#ffffff" fill-rule="evenodd" stroke="#000000" stroke-width="0.036" stroke-miterlimit="10" id="path101" d="m180.848007,389.795013l10.043991,-9.396027l1.296005,4.824005l-10.26001,10.90802l-1.079987,-6.335999z"/>
   <path fill="#ffffff" fill-rule="evenodd" stroke="#000000" stroke-width="0.036" stroke-miterlimit="10" id="path103" d="m215.335999,354.621002l-5.436005,6.553009l0.432007,5.040985l7.847992,-8.747986l-2.843994,-2.846008z"/>
   <path fill="#ffffff" fill-rule="evenodd" stroke="#000000" stroke-width="0.036" stroke-miterlimit="10" id="path105" d="m241.112,329.313995l-4.787994,5.436005l-0.432007,1.764008l6.084,-3.924011l-0.863998,-3.276001z"/>
   <path fill="#ffffff" fill-rule="evenodd" stroke="#000000" stroke-width="0.036" stroke-miterlimit="10" id="path107" d="m217.315994,315.562988l-8.063995,8.710999l4.356003,2.844025c2.304001,-0.322021 4.391998,-0.46701 6.119995,-0.432007c1.764008,0.036987 3.167999,0.251984 4.356003,0.64801l5.255997,-5.436005c-2.843994,-0.14502 -5.003998,-0.21701 -6.335999,-0.21701c-1.367996,-0.179993 -1.007996,-0.359009 -1.979996,0c-1.080002,0.395996 -2.484009,1.187988 -4.356003,2.377014c-1.800003,0.142975 -2.339996,-0.21701 -1.763992,-1.080017c0.539993,-0.936005 2.339996,-2.339996 5.255997,-4.356995c-0.936005,-1.007996 -1.872009,-2.015991 -2.844009,-3.058014z"/>
   <path fill="#ffffff" fill-rule="evenodd" stroke="#000000" stroke-width="0.036" stroke-miterlimit="10" id="path109" d="m224.300003,356.097992c1.800003,-1.97998 3.419998,-3.526978 5.255997,-4.786987c1.764008,-1.26001 3.960007,-1.296997 5.220001,-2.628998c1.115997,-1.403992 0.108002,-3.240021 1.979996,-5.652008c1.764008,-2.554993 4.320007,-3.707001 8.928009,-8.747986c4.535995,-5.076019 10.655991,-11.986023 18.360001,-21.167999c0,0.360992 0.503998,0.64798 1.511993,0.86499c1.007996,0.143005 2.376007,0.214996 4.391998,0.214996l-42.587997,44.10199c-1.007996,-0.721985 -2.016006,-1.441986 -3.059998,-2.197998z"/>
   <path fill="#ffffff" fill-rule="evenodd" stroke="#000000" stroke-width="0.036" stroke-miterlimit="10" id="path111" d="m264.764008,310.77301c-1.368011,-0.900024 -2.484009,-2.339996 -3.348022,-4.463013c-1.007996,-2.125 -2.267975,-5.617004 -1.97998,-8.136993c0.287994,-2.59201 1.691986,-5.938995 3.635986,-7.270996c1.835999,-1.404022 4.46402,-1.404022 7.308014,-1.115997c2.735992,0.143982 6.695984,0.936981 8.963989,2.230988c2.123016,1.26001 3.420013,2.988007 3.889008,5.328003l-2.233002,-0.286011c0.936005,0.611023 0.936005,0.611023 0,0c-1.045013,-0.792999 -3.600006,-3.167999 -5.868011,-3.923981c-2.267975,-0.756012 -5.759979,-0.900024 -7.559998,-0.289001c-1.944,0.540985 -3.023987,2.449005 -3.635986,3.923981c-0.756012,1.404022 -0.899994,2.809021 -0.287994,4.752014c0.612,1.90799 2.015991,3.960999 4.211975,6.445007c-1.007996,0.934998 -2.051971,1.871002 -3.095978,2.806z"/>
   <path fill="#ffffff" fill-rule="evenodd" stroke="#000000" stroke-width="0.036" stroke-miterlimit="10" id="path113" d="m280.459015,299.578003c0.251984,2.950989 -0.215027,5.14801 -1.402008,6.442993c-1.296997,1.296997 -3.132996,1.764008 -5.904999,1.403992c-1.584015,1.045013 -2.231995,1.69101 -1.944,2.232025c0.179993,0.323975 1.90799,1.11499 3.635986,0.575989c1.727997,-0.64801 5.725006,-1.873016 6.731995,-3.671997c0.901001,-1.872009 0.576019,-4.067017 -1.116974,-6.983002z"/>
   <path fill="#ffffff" fill-rule="evenodd" stroke="#000000" stroke-width="0.036" stroke-miterlimit="10" id="path115" d="m270.380005,305.734009c-1.368011,-0.21701 -3.276001,-1.945007 -3.924011,-3.637024c-0.64798,-1.728973 -0.143982,-5.542999 0.540009,-6.442993c0.720001,-1.044983 2.627991,0.106995 3.384003,0.828003c0.503998,0.756012 -0.287994,2.484009 0.251984,3.671997c0.540009,1.042999 3.059998,1.511993 3.096008,2.52002c-0.179993,0.934998 -2.087982,3.059998 -3.347992,3.059998z"/>
   <path fill="#ffffff" fill-rule="evenodd" stroke="#000000" stroke-width="0.036" stroke-miterlimit="10" id="path117" d="m283.375,286.114014c-1.332001,-0.864014 -2.411987,-2.304016 -3.23999,-4.320007c-1.007996,-2.123993 -2.088013,-5.328003 -1.871002,-7.812012c0.21698,-2.556 1.656006,-5.579987 3.492004,-6.984009c1.763977,-1.403992 4.28299,-1.29599 7.019989,-1.079987c2.59201,0.144012 6.480011,0.864014 8.604004,2.160004c2.053009,1.187988 3.312988,2.843994 3.781006,5.112l-2.160004,-0.287994c0.899994,0.612 0.899994,0.612 0,0c-1.045013,-0.684021 -3.527008,-3.096008 -5.652008,-3.744019c-2.160004,-0.64798 -5.507996,-0.971985 -7.270996,-0.287994c-1.835999,0.64801 -2.953003,2.231995 -3.492004,3.779999c-0.756012,1.296021 -0.899994,2.772003 -0.289001,4.571991c0.613007,1.728027 1.90799,3.888 4.03299,6.192017c-0.974976,0.899994 -1.946991,1.799988 -2.954987,2.700012z"/>
   <path fill="#ffffff" fill-rule="evenodd" stroke="#000000" stroke-width="0.036" stroke-miterlimit="10" id="path119" d="m298.459015,275.350006c0.251984,2.807983 -0.143005,4.967987 -1.332001,6.191986c-1.188019,1.188019 -3.02301,1.727997 -5.650024,1.332001c-1.513977,0.972015 -2.196991,1.692017 -1.90799,2.160004c0.286987,0.432007 1.72699,0.936005 3.492004,0.540009c1.583984,-0.540009 5.542999,-1.800018 6.479004,-3.492004c0.863983,-1.656006 0.502991,-4.032013 -1.080994,-6.731995z"/>
   <path fill="#ffffff" fill-rule="evenodd" stroke="#000000" stroke-width="0.036" stroke-miterlimit="10" id="path121" d="m288.774994,281.253998c-1.294983,-0.144012 -3.203003,-1.90799 -3.778992,-3.492004c-0.613007,-1.764008 -0.106995,-5.220001 0.539001,-6.191986c0.575989,-0.899994 2.628998,-0.036011 3.23999,0.791992c0.503998,0.720001 -0.286987,2.447998 0.252014,3.528015c0.540985,1.007996 2.915985,1.439972 2.953003,2.411987c-0.109009,0.899994 -2.052002,2.988007 -3.205017,2.951996z"/>
   <path fill="#ffffff" fill-rule="evenodd" stroke="#000000" stroke-width="0.036" stroke-miterlimit="10" id="path123" d="m298.243988,265.377991c-1.332001,-0.863983 -2.411987,-2.303986 -3.23999,-4.319977c-1.007996,-2.124023 -2.088013,-5.328018 -1.872986,-7.812012c0.323975,-2.556 1.621002,-5.580002 3.491974,-6.984009c1.836029,-1.403992 4.213013,-1.29599 6.984009,-1.079987c2.59201,0.143997 6.480011,0.863998 8.604004,2.159988c2.053009,1.188004 3.312988,2.844009 3.781006,5.112l-2.160004,-0.287994c0.899994,0.612 0.899994,0.612 0,0c-1.045013,-0.684006 -3.527008,-3.095993 -5.652008,-3.744003c-2.160004,-0.647995 -5.507996,-0.972 -7.270996,-0.287994c-1.835999,0.647995 -2.953003,2.231995 -3.492004,3.779999c-0.68399,1.296005 -0.899994,2.772003 -0.251984,4.571991c0.610992,1.727997 1.90799,3.888 4.031006,6.192017c-0.971008,0.899994 -1.944,1.799988 -2.952026,2.699982z"/>
   <path fill="#ffffff" fill-rule="evenodd" stroke="#000000" stroke-width="0.036" stroke-miterlimit="10" id="path125" d="m313.290985,254.613998c0.252014,2.807999 -0.142975,4.968002 -1.33197,6.192001c-1.188019,1.187988 -3.02301,1.727997 -5.650024,1.332001c-1.548981,0.971985 -2.125,1.691986 -1.872986,2.160004c0.289001,0.359985 1.729004,1.044006 3.492004,0.540009c1.656006,-0.612 5.472992,-1.835999 6.442993,-3.528015c0.86499,-1.727997 0.503998,-3.959991 -1.080017,-6.695999z"/>
   <path fill="#ffffff" fill-rule="evenodd" stroke="#000000" stroke-width="0.036" stroke-miterlimit="10" id="path127" d="m303.606995,260.518005c-1.294983,-0.144012 -3.203003,-1.90802 -3.778992,-3.492004c-0.613007,-1.764008 -0.109009,-5.220001 0.539001,-6.192001c0.575989,-0.899994 2.628998,-0.035995 3.23999,0.792007c0.503998,0.755997 -0.324005,2.375992 0.289001,3.491989c0.539001,0.972 2.916016,1.512009 2.950989,2.448013c-0.071991,0.899994 -2.121979,2.987976 -3.23999,2.951996z"/>
   <path fill="#ffffff" fill-rule="evenodd" stroke="#000000" stroke-width="0.036" stroke-miterlimit="10" id="path129" d="m314.839996,247.233994c-1.332001,-0.863998 -2.411987,-2.304001 -3.23999,-4.319992c-1.007996,-2.087997 -2.088013,-5.328003 -1.871002,-7.776001c0.321991,-2.520004 1.618988,-5.688004 3.48999,-7.020004c1.838013,-1.403992 4.213013,-1.29599 6.984009,-1.080002c2.59201,0.144012 6.480011,0.863998 8.605011,2.160004c2.050995,1.188004 3.310974,2.844009 3.778992,5.112l-2.160004,-0.251999c0.899994,0.612 0.899994,0.612 0,0c-1.045013,-0.647995 -3.527008,-3.203995 -5.652008,-3.779999c-2.160004,-0.684006 -5.507996,-0.899994 -7.270996,-0.251999c-1.835999,0.539993 -2.953003,2.304001 -3.492004,3.744003c-0.68399,1.29599 -0.899994,2.772003 -0.251984,4.571991c0.610992,1.728012 1.90799,3.888 4.030975,6.192001c-0.970978,0.900009 -1.942993,1.800003 -2.950989,2.699997z"/>
   <path fill="#ffffff" fill-rule="evenodd" stroke="#000000" stroke-width="0.036" stroke-miterlimit="10" id="path131" d="m329.889008,236.470001c0.251984,2.807999 -0.14502,4.968002 -1.332001,6.192001c-1.188995,1.188004 -3.024994,1.727997 -5.652008,1.332001c-1.549011,0.972 -2.125,1.692001 -1.872986,2.160004c0.289001,0.431992 1.728973,0.935989 3.491974,0.539993c1.656006,-0.539993 5.473022,-1.800003 6.443024,-3.492004c0.86499,-1.655991 0.505981,-4.031998 -1.078003,-6.731995z"/>
   <path fill="#ffffff" fill-rule="evenodd" stroke="#000000" stroke-width="0.036" stroke-miterlimit="10" id="path133" d="m320.203003,242.410004c-1.295013,-0.28801 -3.203003,-1.835999 -3.778992,-3.528c-0.611023,-1.764008 -0.107025,-5.220001 0.539001,-6.192001c0.575989,-0.936005 2.628998,0.035995 3.23999,0.828003c0.503998,0.755997 -0.324005,2.375992 0.289001,3.491989c0.539001,1.008011 2.915985,1.440002 2.950989,2.412003c-0.071991,0.936005 -2.122986,2.951996 -3.23999,2.988007z"/>
   <path fill="#ffffff" fill-rule="evenodd" stroke="#000000" stroke-width="0.036" stroke-miterlimit="10" id="path135" d="m332.229004,226.714005c-0.756012,-0.432007 -1.369019,-1.368011 -1.835999,-2.412003c-0.541016,-1.223999 -1.261993,-3.059998 -1.045013,-4.391998c0.14502,-1.548004 0.936005,-3.132004 1.980011,-3.924011c0.971008,-0.827988 2.375,-0.755997 3.924011,-0.612c1.438995,0.036011 3.563995,0.432007 4.823975,1.188004c1.115021,0.612 1.871002,1.62001 2.123016,2.880005l-1.222992,-0.143997c0.503998,0.360001 0.503998,0.360001 0,0c-0.64801,-0.468002 -1.980011,-1.692001 -3.167999,-2.124008c-1.332001,-0.395996 -3.061005,-0.539993 -4.068024,-0.143997c-1.044983,0.324005 -1.655975,1.223999 -1.97998,2.124008c-0.395996,0.719986 -0.541016,1.475998 -0.14502,2.556c0.361023,1.043991 1.117004,2.159988 2.268005,3.491989c-0.539001,0.503998 -1.078003,1.008011 -1.653992,1.512009z"/>
   <path fill="#ffffff" fill-rule="evenodd" stroke="#000000" stroke-width="0.036" stroke-miterlimit="10" id="path137" d="m340.687988,220.666c0.107025,1.619995 -0.144989,2.735992 -0.755981,3.492004c-0.684021,0.647995 -1.69101,0.899994 -3.167999,0.755997c-0.863007,0.539993 -1.225006,0.936005 -1.080017,1.188004c0.106995,0.251999 1.045013,0.503998 1.980011,0.32399c1.042999,-0.287994 2.950989,-1.080002 3.63501,-1.979996c0.432983,-1.080002 0.323975,-2.160004 -0.611023,-3.779999z"/>
   <path fill="#ffffff" fill-rule="evenodd" stroke="#000000" stroke-width="0.036" stroke-miterlimit="10" id="path139" d="m335.252014,223.977997c-0.721008,-0.179993 -1.801025,-1.007996 -2.125,-1.944c-0.287018,-0.972 -0.143005,-3.059998 0.288971,-3.491989c0.324005,-0.576004 1.404022,0.035995 1.836029,0.467987c0.286987,0.360001 -0.180023,1.332001 0.144989,1.944c0.359009,0.503998 1.511993,0.828003 1.653992,1.368011c-0.143005,0.467987 -1.11499,1.619995 -1.798981,1.655991z"/>
   <path fill="#ffffff" fill-rule="evenodd" stroke="#000000" stroke-width="0.036" stroke-miterlimit="10" id="path141" d="m355.375,200.289993c-0.756012,-0.431992 -1.367004,-1.367996 -1.835999,-2.411987c-0.539001,-1.223999 -1.26001,-3.060013 -1.042999,-4.392014c0.144989,-1.547989 0.936005,-3.131989 1.980011,-3.923996c0.970978,-0.828003 2.375,-0.755997 3.923981,-0.612c1.438995,0.108002 3.563019,0.468002 4.824005,1.223999c1.11499,0.612 1.871002,1.656006 2.122986,2.844009l-1.224976,-0.144012c0.503998,0.360001 0.503998,0.360001 0,0c-0.645996,-0.467987 -1.979004,-1.691986 -3.167999,-2.123993c-1.332001,-0.395996 -3.059021,-0.539993 -4.06601,-0.143997c-1.045013,0.32399 -1.656006,1.223999 -1.980011,2.123993c-0.395996,0.720001 -0.540985,1.475998 -0.144989,2.556c0.359009,1.044006 1.11499,2.160004 2.268005,3.492004c-0.539001,0.503998 -1.080017,1.007996 -1.656006,1.511993z"/>
   <path fill="#ffffff" fill-rule="evenodd" stroke="#000000" stroke-width="0.036" stroke-miterlimit="10" id="path143" d="m363.835999,194.242004c0.106995,1.619995 -0.144989,2.735992 -0.756012,3.491989c-0.68399,0.64801 -1.690979,0.900009 -3.167999,0.756012c-0.86499,0.539993 -1.224976,0.935989 -1.079987,1.187988c0.106995,0.251999 1.042999,0.504013 1.980011,0.324005c1.042999,-0.287994 2.950989,-1.080002 3.634979,-1.979996c0.432007,-1.080002 0.324005,-2.160004 -0.610992,-3.779999z"/>
   <path fill="#ffffff" fill-rule="evenodd" stroke="#000000" stroke-width="0.036" stroke-miterlimit="10" id="path145" d="m358.399994,197.554001c-0.721008,-0.180008 -1.800995,-1.007996 -2.125,-1.944c-0.286987,-0.972 -0.144989,-3.059998 0.289001,-3.492004c0.324005,-0.575989 1.402008,0.036011 1.835999,0.468002c0.287018,0.360001 -0.179993,1.332001 0.143005,1.944c0.360992,0.503998 1.514008,0.828003 1.656006,1.367996c-0.141998,0.468002 -1.11499,1.62001 -1.799011,1.656006z"/>
   <path fill="#ffffff" fill-rule="evenodd" stroke="#000000" stroke-width="0.036" stroke-miterlimit="10" id="path147" d="m270.812012,282.04599c6.47998,6.227997 11.592987,11.124023 15.730988,14.833008c4.067993,3.671997 5.256012,5.938995 8.713013,7.234009c3.347992,1.117004 8.458984,0.937988 11.59198,0c3.061005,-1.007996 7.057007,-3.924011 6.984009,-5.688019c-0.289001,-1.97998 -4.859009,-4.823975 -7.88501,-5.039001c-3.095978,0 -7.415985,3.779022 -10.042999,4.391022c-2.735992,0.468994 -2.196991,0.899994 -5.868988,-1.764008c-3.707001,-2.916016 -8.928009,-7.73999 -15.946991,-15.046997c-1.080017,0.359985 -2.160004,0.720001 -3.276001,1.079987z"/>
   <path fill="#ffffff" fill-rule="evenodd" stroke="#000000" stroke-width="0.036" stroke-miterlimit="10" id="path149" d="m303.786987,272.43399c0.180023,0.792023 0.324005,1.800018 0.432007,2.628021c0.109009,0.791992 0.182007,1.799988 0.21701,2.627991c18.540985,-19.656006 36.503998,-38.699997 55.007996,-58.104004c18.432007,-19.403992 36.432007,-38.195999 54.828003,-57.347992c0.395996,-2.556 0.540985,-4.428009 0.432007,-5.472c-0.107025,-1.152008 -0.46701,-1.512009 -1.080017,-1.080002l-78.40799,83.195999c-1.007996,3.23999 -2.339996,5.832001 -4.139008,7.632004c-1.764008,1.835999 -3.996002,2.87999 -6.553009,3.275986l-6.550995,6.768021c0.322021,1.871979 -0.21698,3.743988 -1.765991,5.471985c-1.511993,1.764008 -4.031006,3.384003 -7.416016,5.003998c-1.655975,1.800018 -3.310974,3.600006 -5.003998,5.399994z"/>
   <path fill="#ffffff" fill-rule="evenodd" stroke="#000000" stroke-width="0.036" stroke-miterlimit="10" id="path151" d="m401.382996,145.138c4.03299,-0.143997 7.020996,0.576004 8.964996,1.763992c1.90802,1.152008 2.770996,3.168015 2.59201,5.652008l-68.110992,69.444c0.610992,-2.736008 0.179993,-4.895996 -1.296997,-6.335999c-1.584015,-1.548004 -4.210999,-2.412003 -7.883026,-2.591995l12.887024,-14.004013c1.692993,1.728012 2.880981,3.060013 3.708984,4.391998c0.68399,1.332001 -0.324005,3.096008 0.863007,3.060013c1.079987,-0.180008 3.096008,-1.62001 5.903992,-4.17601c1.511993,-0.395996 3.02301,-1.043991 4.393005,-1.944c1.403992,-1.043991 3.311005,-2.052002 3.924011,-3.707993c0.503998,-1.692001 0.286987,-4.428009 -0.64801,-6.119995c-1.079987,-1.764008 -2.80899,-3.096008 -5.472992,-4.140015c13.391998,-13.751999 26.783997,-27.503998 40.174988,-41.291992z"/>
   <path fill="#ffffff" fill-rule="evenodd" stroke="#000000" stroke-width="0.036" stroke-miterlimit="10" id="path153" d="m399.187988,143.014008c-0.358978,-2.160004 -0.034973,-3.564011 1.117004,-4.356003c1.078003,-0.792007 3.490021,-0.396011 5.436005,-0.216003c1.835999,0.108002 3.600006,-0.576004 5.687988,0.863998c2.016022,1.440002 4.248016,3.779999 6.553009,7.416l-2.628998,4.175995c-0.828003,-2.304001 -1.871002,-3.959991 -3.274994,-5.255997c-1.368988,-1.367996 -2.988007,-1.944 -5.003998,-2.412003c-2.162018,-0.468002 -4.791016,-0.539993 -7.886017,-0.215988z"/>
   <path fill="#ffffff" fill-rule="evenodd" stroke="#000000" stroke-width="0.036" stroke-miterlimit="10" id="path155" d="m417.11499,153.742004c0.289001,0.647995 0.432007,1.584 0.432007,2.807999c0,1.223999 -0.143005,2.591995 -0.432007,4.391998c1.980011,-0.468002 3.240021,-1.080002 3.924011,-1.979996c0.503998,-0.972 0.182007,-1.908005 0,-3.492004c-0.143005,-1.692001 -0.432007,-3.600006 -0.863007,-6.119995c-1.007996,1.439987 -2.015991,2.916 -3.061005,4.391998z"/>
   <path fill="#ffffff" fill-rule="evenodd" stroke="#000000" stroke-width="0.036" stroke-miterlimit="10" id="path157" d="m425.610992,114.646004c-0.358978,-2.160004 -0.035004,-3.564003 1.117004,-4.356003c1.080017,-0.792 3.492004,-0.396004 5.436005,-0.216003c1.835999,0.108002 3.600006,-0.575996 5.687988,0.864006c2.016022,1.439995 4.248016,3.779999 6.553009,7.415993l-2.628998,4.140007c-0.828003,-2.232002 -1.871002,-3.924004 -3.274994,-5.220001c-1.369019,-1.368004 -2.988007,-1.944 -5.003998,-2.412003c-2.161011,-0.468002 -4.790009,-0.540001 -7.886017,-0.215996z"/>
   <path fill="#ffffff" fill-rule="evenodd" stroke="#000000" stroke-width="0.036" stroke-miterlimit="10" id="path159" d="m443.539001,125.337997c0.289001,0.720001 0.43399,1.620003 0.43399,2.844009c0,1.223999 -0.144989,2.627991 -0.43399,4.355988c1.980011,-0.395996 3.23999,-1.043991 3.924011,-1.944c0.503998,-0.972 0.181976,-1.90799 0,-3.491997c-0.143005,-1.691994 -0.432007,-3.599998 -0.863007,-6.119995c-1.007996,1.439995 -2.015991,2.879997 -3.061005,4.355995z"/>
   <path fill="#ffffff" fill-rule="evenodd" stroke="#000000" stroke-width="0.036" stroke-miterlimit="10" id="path161" d="m408.367004,136.354004l18.792999,-19.620003c3.347992,-0.828003 6.156006,-0.612 8.278992,0.648003c2.160004,1.259995 3.636993,3.419998 4.571991,6.767998l-19.403992,20.736c-2.303009,-3.311996 -4.535004,-5.544006 -6.550995,-6.984009c-2.016998,-1.439987 -3.959991,-1.90799 -5.688995,-1.547989z"/>
   <path fill="#ffffff" fill-rule="evenodd" stroke="#000000" stroke-width="0.036" stroke-miterlimit="10" id="path163" d="m421.903992,147.945999l19.007996,-21.167999c0.287018,1.008003 0.432007,2.231995 0.432007,3.276001c-0.071991,1.007996 -0.286987,2.231995 -0.64798,3.276001l-17.928009,19.871994l-0.864014,-5.255997z"/>
   <path fill="#ffffff" fill-rule="evenodd" stroke="#000000" stroke-width="0.036" stroke-miterlimit="10" id="path165" d="m436.304993,108.634003l51.119019,-52.848003c1.11499,1.080002 3.02298,1.764 5.866974,2.195999c2.809021,0.360001 6.40802,0.360001 10.945007,0l-58.320007,59.400005c-1.368988,-2.484001 -2.770996,-4.5 -4.35498,-5.904007c-1.657013,-1.511993 -3.313019,-2.411995 -5.256012,-2.843994z"/>
   <path fill="#ffffff" fill-rule="evenodd" stroke="#000000" stroke-width="0.036" stroke-miterlimit="10" id="path167" d="m447.679993,119.110001l57.636993,-59.616001c2.375,-0.756001 5.219025,-2.627998 8.531036,-5.616001c3.312988,-3.132 8.640991,-9.216 11.125,-12.419998c2.302979,-3.203999 3.419983,-5.507999 3.05896,-6.768002l23.14801,-23.147999c0.324036,1.188 0.395996,2.304 0.21698,3.492001c-0.251953,1.115999 -0.647949,2.16 -1.33197,3.275999l-93.671997,97.812002l-7.201019,7.271996c-0.503998,-1.403999 -1.007996,-2.843994 -1.511993,-4.283997z"/>
   <path fill="#ffffff" fill-rule="evenodd" stroke="#000000" stroke-width="0.036" stroke-miterlimit="10" id="path169" d="m536.526978,4.774c1.621033,-1.116 3.348022,-1.512 5.041016,-1.332c1.72699,0.18 3.887024,1.116 5.218994,2.412c1.26001,1.188 1.945007,2.736 2.197021,4.788l-21.60199,21.42c-1.007996,-3.24 -1.906006,-5.616001 -2.843994,-7.416c-0.936035,-1.799999 -1.764038,-2.844 -2.627014,-3.275999c4.859985,-5.508 9.719971,-11.052001 14.615967,-16.596001z"/>
   <path fill="#ffffff" fill-rule="evenodd" stroke="#000000" stroke-width="0.036" stroke-miterlimit="10" id="path171" d="m485.660004,49.306c1.980011,-2.843998 8.639008,-9.540001 13.320007,-13.967999c4.571991,-4.536001 10.007996,-11.196001 13.96701,-12.888c3.92395,-1.800001 7.057007,0.251999 9.395996,2.411999c2.231995,2.124001 5.544983,5.616001 3.708984,10.476002c-2.052979,4.860001 -10.403992,14.903999 -15.480011,18.323997c-5.220978,3.240002 -11.087982,1.764 -15.083984,1.548c-3.996002,-0.396 -6.877014,-2.015999 -8.496002,-3.059998c-1.692993,-1.080002 -3.38501,-0.036003 -1.332001,-2.844002z"/>
   <path fill-rule="evenodd" stroke="#000000" stroke-width="0.036" stroke-miterlimit="10" id="path173" d="m503.335999,37.75c0.972992,1.332001 6.084015,2.987999 8.531006,2.591999c2.377014,-0.576 5.617004,-3.815998 5.689026,-5.437c-0.14502,-1.764 -3.709045,-3.923998 -5.689026,-4.391998c-2.015991,-0.504 -4.752014,0.504 -6.119019,1.764c-1.511993,1.224998 -3.419983,4.069 -2.411987,5.473z"/>
   <path fill="#ffffff" fill-rule="evenodd" stroke="#000000" stroke-width="0.036" stroke-miterlimit="10" id="path175" d="m537.427979,1.066c1.045044,-0.288 2.377014,-0.288 4.140991,0c1.727051,0.288 4.680054,0.864 6.33606,1.728c1.655945,0.828 2.698975,2.268 3.274963,3.492c0.395996,1.08 0.179993,2.376 -0.64801,3.492c-0.64801,-2.304 -1.618958,-3.996 -3.05896,-5.22c-1.477051,-1.332 -3.674011,-2.016 -5.473022,-2.196c-1.90802,-0.18 -3.599976,0.252 -5.473022,1.296c0.289001,-0.864 0.577026,-1.728 0.901001,-2.592z"/>
   <path fill="#ffffff" fill-rule="evenodd" stroke="#000000" stroke-width="0.036" stroke-miterlimit="10" id="path177" d="m236.612,288.597992c5.039993,-5.436005 10.080002,-10.548004 14.975998,-15.47998c4.931992,-4.896027 9.720016,-9.612 14.508011,-14.003998c-0.503998,-1.26001 -0.540009,-2.376007 0.287994,-3.060028c0.756012,-0.827988 2.087982,-1.223984 4.139984,-1.475983l9.576019,-11.052002c-0.684021,-0.972 -0.684021,-1.908005 0,-2.412003c0.610992,-0.612 1.90799,-0.972 3.889008,-1.080002l14.938995,-14.615997c-0.721008,-1.367996 -0.721008,-2.483994 0,-3.059998c0.720978,-0.612 2.052979,-0.972 4.140991,-0.792007c2.160004,-3.23999 3.85199,-4.860001 4.932007,-5.255997c1.11499,-0.360001 2.015991,1.908005 1.583984,3.20401c-0.540985,1.187988 -2.087982,2.556 -4.644989,4.103989l4.247986,4.536011c-0.214996,-0.072006 -0.575989,0.107986 -0.935974,0.935989c-0.432007,0.64801 -0.863007,1.944 -1.439026,3.492004l-5.220978,-5.220001l-14.938995,14.147995l6.550995,5.076004c-0.432007,0.324005 -0.936005,0.899994 -1.223022,1.871994c-0.43399,0.936005 -0.64798,2.124008 -0.937988,3.708008l-8.243988,-6.264008l-9.214996,10.008011l7.199982,7.488007c-0.359009,0.287994 -0.755981,0.720001 -1.187988,1.583984c-0.503998,0.828003 -0.899994,1.800018 -1.47702,3.20401l-4.678986,-4.679993l-17.208008,18.791992l5.220001,4.787994c-1.079987,0.360016 -1.835999,0.899994 -2.411987,1.619995c-0.540009,0.720001 -0.899994,1.513 -0.936005,2.520996l-5.184006,-4.932983l-8.567993,8.135986c-0.720001,1.549011 -1.512009,2.377014 -2.376007,2.881012c-0.936005,0.394989 -2.699997,0.214996 -2.951996,-0.395996c-0.324005,-0.756012 -1.080002,-1.045013 1.080002,-3.492004c2.087997,-2.446991 5.867996,-6.084015 11.483994,-11.052002l17.71199,-18.540009l-1.583984,-1.871979c-11.736008,12.815979 -20.016006,21.203979 -25.236008,25.73999c-5.220001,4.428009 -7.127991,4.679993 -5.867996,0.898987z"/>
   <path fill="#ffffff" fill-rule="evenodd" stroke="#000000" stroke-width="0.036" stroke-miterlimit="10" id="path179" d="m252.091995,290.757996l-9.32399,10.549011c4.067993,-0.324005 7.307999,0.071991 9.863998,1.187988c2.447998,1.152008 4.356003,2.878998 5.327988,5.472992c-1.115997,-3.024994 -1.871979,-5.507996 -2.123993,-7.849976c-0.324005,-2.339996 -0.143997,-4.248016 0.395996,-5.867004c-1.367996,-1.153015 -2.735992,-2.306 -4.139999,-3.493011z"/>
   <path fill="#ffffff" fill-rule="evenodd" stroke="#000000" stroke-width="0.036" stroke-miterlimit="10" id="path181" d="m259.18399,281.037994l13.716003,-13.5l3.20401,2.556c-1.26001,2.484009 -1.872009,4.391998 -2.123993,5.868011c-0.288025,1.475983 0.071991,2.231995 0.791992,2.664001l-7.056,1.871979l0.540009,5.076019c-1.152008,-0.179993 -2.232025,-0.179993 -3.096008,-0.144012c-0.936005,0 -1.727997,0.179993 -2.376007,0.395996c-1.187988,-1.583984 -2.376007,-3.167999 -3.600006,-4.787994z"/>
   <path fill="#ffffff" fill-rule="evenodd" stroke="#000000" stroke-width="0.036" stroke-miterlimit="10" id="path183" d="m276.932007,254.901993l5.867004,-5.867996l7.597992,6.012009c-0.324005,1.115982 -0.324005,2.412003 -0.144989,3.887985c0.178986,1.476013 0.538971,3.024017 1.224976,4.787994c-0.468994,-0.395996 -1.548981,-0.755981 -2.953003,-0.935974c-1.438995,-0.216003 -3.491974,-0.395996 -5.866974,-0.395996c-1.909027,-2.484009 -3.817017,-4.968018 -5.725006,-7.488022z"/>
   <path fill="#ffffff" fill-rule="evenodd" stroke="#000000" stroke-width="0.036" stroke-miterlimit="10" id="path185" d="m290,240.789993l11.735992,-10.547989l5.184021,4.535995c-0.324005,0.972 -0.504028,2.123993 -0.396027,3.455994c0.037018,1.332001 0.21701,2.700012 0.684021,4.392014c-2.160004,-0.324005 -4.248016,-0.504013 -6.40802,-0.252014c-2.15799,0.108002 -4.390991,0.64801 -6.550995,1.332001c-1.404999,-0.972 -2.809998,-1.944 -4.248993,-2.916z"/>
   <path fill="#ffffff" fill-rule="evenodd" stroke="#000000" stroke-width="0.036" stroke-miterlimit="10" id="path187" d="m322.14801,207.634003l7.595978,-7.488007l5.615021,6.264008l-6.695007,6.263992l-6.515991,-5.039993z"/>
   <path fill="#ffffff" fill-rule="evenodd" stroke="#000000" stroke-width="0.036" stroke-miterlimit="10" id="path189" d="m332.946991,197.733994l9.613007,-8.927994l5.074005,4.932007l-9.756012,9.215988l-4.931,-5.220001z"/>
   <path fill="#ffffff" fill-rule="evenodd" stroke="#000000" stroke-width="0.036" stroke-miterlimit="10" id="path191" d="m358.039001,175.738007c2.088013,1.763992 3.457001,2.916 4.247986,3.455994c0.613007,0.432007 -0.68399,0.251999 0.14502,-0.395996c0.828003,-0.720001 2.376984,-2.052002 4.789001,-3.852005l-5.328003,-3.744003c-1.261993,1.512009 -2.557007,3.024002 -3.854004,4.536011z"/>
   <path fill="#ffffff" fill-rule="evenodd" stroke="#000000" stroke-width="0.036" stroke-miterlimit="10" id="path193" d="m368.299011,165.082001l3.60199,-3.888l3.996002,3.600006l-5.075989,5.075989l-3.061005,-3.455994l0.539001,-1.332001z"/>
   <path fill="#ffffff" fill-rule="evenodd" stroke="#000000" stroke-width="0.036" stroke-miterlimit="10" id="path195" d="m315.992004,205.725998c5.110992,-4.5 10.403992,-9.468002 16.019989,-15.048004c5.652008,-5.615997 11.339996,-11.699997 17.460999,-18.395996c-0.575989,-1.692001 -0.575989,-2.807999 0,-3.347992c0.46701,-0.540009 1.546997,-0.720001 3.096008,-0.144012l7.847992,-7.451996c-0.64798,-0.936005 -0.68399,-1.692001 -0.106995,-2.26799c0.539001,-0.64801 1.69101,-1.008011 3.455017,-1.224014c1.728973,-2.087997 3.23999,-3.419998 4.392975,-4.139999c1.188019,-0.720001 2.303009,-0.720001 2.664001,-0.143997c0.180023,0.432007 -0.071991,1.367996 -1.188995,2.807999c-1.079987,1.332001 -1.979004,1.440002 -5.61499,5.328003c-3.889008,3.888 -9.395996,9.755997 -17.063995,17.891998l7.73999,7.199997c-1.295013,0.072006 -2.050995,0.468002 -2.664001,0.792007c-0.503998,0.432007 -0.863007,0.791992 -0.68399,1.475998l-7.451019,-6.156006c-5.112976,4.248001 -10.009979,8.964005 -15.229004,14.14801c-5.220978,5.220001 -10.33197,10.692001 -15.731995,16.811996c-1.583984,0.287994 -2.160004,-0.072006 -1.583984,-1.475998c0.501984,-1.440002 2.049988,-3.528 4.641998,-6.660004z"/>
   <path fill="#ffffff" fill-rule="evenodd" stroke="#000000" stroke-width="0.036" stroke-miterlimit="10" id="path197" d="m327.871002,216.309998c-1.26001,-1.29599 -2.411987,-2.627991 -3.743988,-3.852005c-1.332001,-1.259995 -2.664001,-2.556 -4.139008,-3.743988l-1.729004,1.871994l8.964996,8.928009c-0.036987,-0.612015 0,-1.008011 0.106995,-1.584015c0.108002,-0.575989 0.287994,-1.115997 0.540009,-1.619995z"/>
   <path fill="#ffffff" fill-rule="evenodd" stroke="#000000" stroke-width="0.036" stroke-miterlimit="10" id="path199" d="m311.347992,222.070007l7.596008,-7.200012l8.136993,9.072006c-0.68399,-0.216003 -2.196991,-0.395996 -4.536987,-0.143997c-2.375,0.143997 -5.580017,0.539993 -9.610992,1.187988c-0.505005,-0.971985 -1.044006,-1.943985 -1.585022,-2.915985z"/>
   <path fill="#ffffff" fill-rule="evenodd" stroke="#000000" stroke-width="0.036" stroke-miterlimit="10" id="path201" d="m350.299011,179.589996l5.472992,3.996002l5.18399,0l1.332001,-1.727997l-7.343994,-6.300003l-4.644989,4.031998z"/>
   <path fill="#ffffff" fill-rule="evenodd" stroke="#000000" stroke-width="0.036" stroke-miterlimit="10" id="path203" d="m355.484009,172.246002l13.210999,-12.960007l2.125,1.223999l-13.320007,13.212006l-2.015991,-1.475998z"/>
  </g>
 </g>
</svg>